# File created by Blade
# Date/Time:  Wed Jan 21 19:09:01 2015
#---------------------------------------------------------
:version 1.10
:name HOM
:units
  mass 1.0
  length 1.000000
  angle deg
:documentation
     Acclaim Skeleton File
:root
   axis xyz
   order TX TY TZ RX RY RZ
   position 0.000000 0.000000 0.000000
   orientation 0 0 0
:bonedata
   begin
      id 1
      name RightUpLeg_dum
      direction -1.000000 0.000000 0.000000
      length 3.693983
      axis 0.0 0.0 0.0 xyz
   end
   begin
      id 2
      name LeftUpLeg_dum
      direction 1.000000 0.000000 0.000000
      length 3.693983
      axis 0.0 0.0 0.0 xyz
   end
   begin
      id 3
      name Spine_dum
      direction 0.000000 1.000000 0.000000
      length 2.392956
      axis 0.0 0.0 0.0 xyz
   end
   begin
      id 4
      name RightUpLeg
      direction 0.000000 -1.000000 0.000000
      length 15.795667
      axis 0.0 0.0 0.0 xyz
      dof rx ry rz
   end
   begin
      id 5
      name RightLeg
      direction 0.000000 -1.000000 0.000000
      length 14.766989
      axis 0.0 0.0 0.0 xyz
      dof rx ry rz
   end
   begin
      id 6
      name RightFoot
      direction 0.000000 -0.258819 0.965926
      length 4.962790
      axis 15.0 0.0 0.0 xyz
      dof rx ry rz
   end
   begin
      id 7
      name RightToeBase
      direction 0.000000 0.000000 1.000000
      length 2.952750
      axis 0.0 0.0 0.0 xyz
      dof rx ry rz
   end
   begin
      id 8
      name LeftUpLeg
      direction 0.000000 -1.000000 0.000000
      length 15.795667
      axis 0.0 0.0 0.0 xyz
      dof rx ry rz
   end
   begin
      id 9
      name LeftLeg
      direction 0.000000 -1.000000 0.000000
      length 14.766989
      axis 0.0 0.0 0.0 xyz
      dof rx ry rz
   end
   begin
      id 10
      name LeftFoot
      direction 0.000000 -0.258819 0.965926
      length 4.962790
      axis 15.0 0.0 0.0 xyz
      dof rx ry rz
   end
   begin
      id 11
      name LeftToeBase
      direction 0.000000 0.000000 1.000000
      length 2.952750
      axis 0.0 0.0 0.0 xyz
      dof rx ry rz
   end
   begin
      id 12
      name Spine
      direction 0.000000 1.000000 0.000000
      length 0.000000
      axis 0.0 0.0 0.0 xyz
      dof rx ry rz
   end
   begin
      id 13
      name Spine_dum1
      direction 0.000000 1.000000 0.000000
      length 13.207411
      axis 0.0 0.0 0.0 xyz
   end
   begin
      id 14
      name Spine_dum2
      direction 0.000000 1.000000 0.000000
      length 13.207411
      axis 0.0 0.0 0.0 xyz
   end
   begin
      id 15
      name Spine_dum3
      direction 0.000000 1.000000 0.000000
      length 19.250100
      axis 0.0 0.0 0.0 xyz
   end
   begin
      id 16
      name RightShoulder
      direction -1.000000 0.000000 0.000000
      length 8.140465
      axis 0.0 0.0 90.0 xyz
      dof rx ry rz
   end
   begin
      id 17
      name RightArm
      direction -1.000000 0.000000 0.000000
      length 10.649840
      axis 0.0 0.0 90.0 xyz
      dof rx ry rz
   end
   begin
      id 18
      name RightForeArm
      direction -1.000000 0.000000 0.000000
      length 8.304624
      axis 0.0 0.0 90.0 xyz
      dof ry rz rx
   end
   begin
      id 19
      name RightHand
      direction -1.000000 0.000000 0.000000
      length 0.000000
      axis 0.0 0.0 90.0 xyz
      dof rx ry rz
   end
   begin
      id 20
      name RightHand_dum1
      direction -1.000000 0.000000 0.000000
      length 3.937000
      axis 0.0 0.0 90.0 xyz
   end
   begin
      id 21
      name RightHand_dum2
      direction 0.000000 0.000000 0.000000
      length 0.000000
      axis 0.0 0.0 90.0 xyz
   end
   begin
      id 22
      name RightHandThumb1
      direction 0.000000 0.000000 1.000000
      length 3.937000
      axis 0.0 0.0 90.0 xyz
      dof rx rz ry
   end
   begin
      id 23
      name LeftShoulder
      direction 1.000000 0.000000 0.000000
      length 8.140465
      axis 0.0 0.0 -90.0 xyz
      dof rx ry rz
   end
   begin
      id 24
      name LeftArm
      direction 1.000000 0.000000 0.000000
      length 10.649840
      axis 0.0 0.0 -90.0 xyz
      dof rx ry rz
   end
   begin
      id 25
      name LeftForeArm
      direction 1.000000 0.000000 0.000000
      length 8.304624
      axis 0.0 0.0 -90.0 xyz
      dof ry rz rx
   end
   begin
      id 26
      name LeftHand
      direction 1.000000 0.000000 0.000000
      length 0.000000
      axis 0.0 0.0 -90.0 xyz
      dof rx ry rz
   end
   begin
      id 27
      name LeftHand_dum1
      direction 1.000000 0.000000 0.000000
      length 3.937000
      axis 0.0 0.0 -90.0 xyz
   end
   begin
      id 28
      name LeftHand_dum2
      direction 0.000000 0.000000 0.000000
      length 0.000000
      axis 0.0 0.0 -90.0 xyz
   end
   begin
      id 29
      name LeftHandThumb1
      direction 0.000000 0.000000 1.000000
      length 3.937000
      axis 0.0 0.0 -90.0 xyz
      dof rx rz ry
   end
   begin
      id 30
      name Head
      direction 0.000000 1.000000 0.000000
      length 4.527550
      axis 0.0 0.0 0.0 xyz
      dof rx ry rz
   end
:hierarchy
   begin
      root RightUpLeg_dum LeftUpLeg_dum Spine_dum
      RightUpLeg_dum RightUpLeg
      LeftUpLeg_dum LeftUpLeg
      Spine_dum Spine
      RightUpLeg RightLeg
      RightLeg RightFoot
      RightFoot RightToeBase
      LeftUpLeg LeftLeg
      LeftLeg LeftFoot
      LeftFoot LeftToeBase
      Spine Spine_dum1 Spine_dum2 Spine_dum3
      Spine_dum1 RightShoulder
      Spine_dum2 LeftShoulder
      Spine_dum3 Head
      RightShoulder RightArm
      RightArm RightForeArm
      RightForeArm RightHand
      RightHand RightHand_dum1 RightHand_dum2
      RightHand_dum2 RightHandThumb1
      LeftShoulder LeftArm
      LeftArm LeftForeArm
      LeftForeArm LeftHand
      LeftHand LeftHand_dum1 LeftHand_dum2
      LeftHand_dum2 LeftHandThumb1
   end

# File created by Blade
# Date/Time:  Wed Jan 21 19:08:52 2015
# Frame Rate: 120.000 fps
#------------------------------------------------------
:FULLY-SPECIFIED
:DEGREES
263
root -1.798569 31.809195 -8.719797 47.643532 25.577455 12.104547
RightUpLeg -54.214107 -1.246115 13.154621
RightLeg 15.836791 -0.000000 -0.000000
RightFoot -17.797243 -15.094952 12.253389
RightToeBase 18.097968 -0.000000 -0.000000
LeftUpLeg -36.619117 -19.534377 -5.468305
LeftLeg -4.642055 -0.000000 0.000000
LeftFoot -2.888881 -15.103423 -7.343650
LeftToeBase 12.566270 -0.000000 -0.000000
Spine -45.142088 -15.459605 3.832903
RightShoulder -19.954191 16.563009 -48.615554
RightArm -0.454838 -11.631873 43.229801
RightForeArm 7.205951 0.000000 -7.301341
RightHand 6.026462 -0.000000 10.176398
RightHandThumb1 -24.326973 -0.000000 -32.862282
LeftShoulder -9.210918 0.288774 36.521287
LeftArm 24.336552 -10.063654 -43.095700
LeftForeArm 12.220666 0.000000 -3.989189
LeftHand -22.794479 0.000000 -2.400713
LeftHandThumb1 -26.253704 0.000000 33.147579
Head 3.403028 -4.934705 1.427848
264
root -1.804639 31.809600 -8.707268 47.728319 25.660798 12.100489
RightUpLeg -54.172707 -1.234992 13.211129
RightLeg 15.567456 -0.000000 -0.000000
RightFoot -17.734677 -15.242761 12.183634
RightToeBase 18.289016 -0.000000 -0.000000
LeftUpLeg -36.646540 -19.518151 -5.393176
LeftLeg -4.720562 -0.000000 0.000000
LeftFoot -2.859581 -15.220594 -7.462873
LeftToeBase 12.630035 -0.000000 -0.000000
Spine -45.180613 -15.587604 3.714784
RightShoulder -19.965574 16.526204 -48.646512
RightArm -0.532901 -11.540011 43.258506
RightForeArm 7.180795 -0.000000 -7.367250
RightHand 6.027869 -0.000000 10.336285
RightHandThumb1 -24.326973 -0.000000 -32.862282
LeftShoulder -9.252606 0.306798 36.428535
LeftArm 24.381762 -9.952249 -43.017346
LeftForeArm 12.150633 -0.000000 -3.830424
LeftHand -22.885872 0.000000 -2.183657
LeftHandThumb1 -26.253704 0.000000 33.147579
Head 3.278557 -4.976949 1.304553
265
root -1.810986 31.811540 -8.693033 47.766417 25.760434 12.076818
RightUpLeg -54.099508 -1.238676 13.306135
RightLeg 15.332129 -0.000000 -0.000000
RightFoot -17.634646 -15.399855 12.090580
RightToeBase 18.411144 -0.000000 -0.000000
LeftUpLeg -36.641170 -19.479108 -5.325760
LeftLeg -4.771132 -0.000000 0.000000
LeftFoot -2.831397 -15.343042 -7.595901
LeftToeBase 12.692008 -0.000000 -0.000000
Spine -45.176096 -15.711768 3.611568
RightShoulder -20.003942 16.455051 -48.680216
RightArm -0.556340 -11.472932 43.270395
RightForeArm 7.194734 -0.000000 -7.435757
RightHand 6.003576 0.000000 10.431095
RightHandThumb1 -24.326973 -0.000000 -32.862282
LeftShoulder -9.288840 0.262569 36.309511
LeftArm 24.396548 -9.977944 -43.001648
LeftForeArm 12.251582 -0.000000 -3.678471
LeftHand -23.029019 -0.000000 -2.012493
LeftHandThumb1 -26.253704 0.000000 33.147579
Head 3.153892 -5.007214 1.174666
266
root -1.819352 31.813181 -8.680636 47.828942 25.874312 12.057595
RightUpLeg -54.054044 -1.217325 13.364151
RightLeg 15.105150 -0.000000 -0.000000
RightFoot -17.533908 -15.557847 11.977576
RightToeBase 18.469282 -0.000000 -0.000000
LeftUpLeg -36.670428 -19.445959 -5.254731
LeftLeg -4.807291 -0.000000 0.000000
LeftFoot -2.790560 -15.459058 -7.670229
LeftToeBase 12.636529 -0.000000 -0.000000
Spine -45.177615 -15.833662 3.486939
RightShoulder -20.040165 16.435302 -48.729941
RightArm -0.675385 -11.446266 43.276712
RightForeArm 7.216929 -0.000000 -7.486159
RightHand 5.959372 -0.000000 10.502519
RightHandThumb1 -24.326973 -0.000000 -32.862282
LeftShoulder -9.300942 0.253564 36.219039
LeftArm 24.475784 -9.938634 -42.988072
LeftForeArm 12.272757 -0.000000 -3.618209
LeftHand -23.024109 -0.000000 -1.844445
LeftHandThumb1 -26.253704 0.000000 33.147579
Head 3.019156 -5.049472 1.063555
267
root -1.826659 31.816167 -8.667804 47.876769 26.000752 12.028021
RightUpLeg -53.991476 -1.185140 13.409973
RightLeg 14.878371 -0.000000 -0.000000
RightFoot -17.442072 -15.691206 11.928371
RightToeBase 18.544677 -0.000000 -0.000000
LeftUpLeg -36.695378 -19.390663 -5.198808
LeftLeg -4.812304 -0.000000 0.000000
LeftFoot -2.773108 -15.584260 -7.756134
LeftToeBase 12.698656 -0.000000 -0.000000
Spine -45.174086 -15.971674 3.411416
RightShoulder -20.059181 16.416954 -48.803606
RightArm -0.783774 -11.318633 43.284534
RightForeArm 7.229343 0.000000 -7.555719
RightHand 6.003082 -0.000000 10.578345
RightHandThumb1 -24.326973 -0.000000 -32.862282
LeftShoulder -9.339806 0.278443 36.063645
LeftArm 24.543033 -9.862396 -42.922961
LeftForeArm 12.201159 -0.000000 -3.495379
LeftHand -23.023523 -0.000000 -1.686408
LeftHandThumb1 -26.253704 0.000000 33.147579
Head 2.850023 -5.082528 0.912349
268
root -1.832477 31.819476 -8.654123 47.909888 26.141372 11.988552
RightUpLeg -53.893882 -1.127945 13.429444
RightLeg 14.616018 -0.000000 -0.000000
RightFoot -17.345518 -15.868191 11.854389
RightToeBase 18.592682 -0.000000 -0.000000
LeftUpLeg -36.707378 -19.362223 -5.120253
LeftLeg -4.824574 -0.000000 0.000000
LeftFoot -2.777310 -15.659770 -7.753556
LeftToeBase 12.702807 -0.000000 -0.000000
Spine -45.154667 -16.102399 3.329746
RightShoulder -20.087595 16.422497 -48.873692
RightArm -0.943090 -11.203763 43.258314
RightForeArm 7.165300 -0.000000 -7.552996
RightHand 5.953873 -0.000000 10.569365
RightHandThumb1 -24.326973 -0.000000 -32.862282
LeftShoulder -9.357165 0.302127 35.967956
LeftArm 24.599242 -9.944942 -43.033643
LeftForeArm 12.336220 -0.000000 -3.370900
LeftHand -23.094278 -0.000000 -1.431806
LeftHandThumb1 -26.253704 0.000000 33.147579
Head 2.708485 -5.125543 0.767832
269
root -1.839891 31.823483 -8.639498 47.940594 26.293023 11.945777
RightUpLeg -53.793572 -1.088460 13.465871
RightLeg 14.352044 -0.000000 -0.000000
RightFoot -17.256965 -15.964926 11.842312
RightToeBase 18.699578 -0.000000 -0.000000
LeftUpLeg -36.721467 -19.344943 -5.022872
LeftLeg -4.836889 -0.000000 0.000000
LeftFoot -2.787258 -15.724153 -7.747656
LeftToeBase 12.704637 -0.000000 -0.000000
Spine -45.123645 -16.244151 3.260623
RightShoulder -20.148184 16.391467 -48.959552
RightArm -1.035033 -11.111367 43.245587
RightForeArm 7.162954 0.000000 -7.583297
RightHand 5.900839 -0.000000 10.528353
RightHandThumb1 -24.326973 -0.000000 -32.862282
LeftShoulder -9.381758 0.279671 35.844675
LeftArm 24.607076 -9.755862 -43.003866
LeftForeArm 12.249194 0.000000 -3.248826
LeftHand -23.145600 -0.000000 -1.259488
LeftHandThumb1 -26.253704 0.000000 33.147579
Head 2.555068 -5.120040 0.646122
270
root -1.847996 31.827547 -8.622718 47.965915 26.455060 11.902281
RightUpLeg -53.680848 -1.048119 13.495914
RightLeg 14.081068 -0.000000 -0.000000
RightFoot -17.212916 -16.073106 11.862212
RightToeBase 18.881406 -0.000000 -0.000000
LeftUpLeg -36.722518 -19.356020 -4.895306
LeftLeg -4.873555 -0.000000 0.000000
LeftFoot -2.772524 -15.766483 -7.783677
LeftToeBase 12.651206 -0.000000 -0.000000
Spine -45.105409 -16.423474 3.226675
RightShoulder -20.169458 16.416362 -49.040741
RightArm -1.145571 -11.039247 43.212506
RightForeArm 7.196176 -0.000000 -7.613289
RightHand 5.718082 -0.000000 10.697161
RightHandThumb1 -24.326973 -0.000000 -32.862282
LeftShoulder -9.426549 0.272269 35.727082
LeftArm 24.629133 -9.704565 -43.068245
LeftForeArm 12.349873 -0.000000 -3.184620
LeftHand -23.163760 -0.000000 -1.033252
LeftHandThumb1 -26.253704 0.000000 33.147579
Head 2.399056 -5.130461 0.503080
271
root -1.854427 31.832254 -8.605921 47.979824 26.619608 11.833643
RightUpLeg -53.563454 -1.023042 13.553702
RightLeg 13.806231 -0.000000 -0.000000
RightFoot -17.169712 -16.112968 11.924477
RightToeBase 19.091966 -0.000000 -0.000000
LeftUpLeg -36.720287 -19.372074 -4.740525
LeftLeg -4.924530 -0.000000 0.000000
LeftFoot -2.773208 -15.771330 -7.812211
LeftToeBase 12.715089 -0.000000 -0.000000
Spine -45.081926 -16.550316 3.171188
RightShoulder -20.188510 16.368814 -49.129154
RightArm -1.265413 -11.006948 43.198784
RightForeArm 7.279595 0.000000 -7.660865
RightHand 5.910398 -0.000000 10.532144
RightHandThumb1 -24.326973 -0.000000 -32.862282
LeftShoulder -9.422085 0.304606 35.594062
LeftArm 24.690934 -9.609025 -43.111206
LeftForeArm 12.259778 0.000000 -3.111968
LeftHand -23.240928 -0.000000 -0.939556
LeftHandThumb1 -26.253704 0.000000 33.147579
Head 2.282014 -5.155353 0.381326
272
root -1.860857 31.837464 -8.587495 47.987256 26.769495 11.758496
RightUpLeg -53.441662 -0.987486 13.591247
RightLeg 13.529526 -0.000000 -0.000000
RightFoot -17.205860 -16.123038 12.067750
RightToeBase 19.703727 -0.000000 -0.000000
LeftUpLeg -36.709422 -19.405721 -4.563225
LeftLeg -5.000445 -0.000000 0.000000
LeftFoot -2.780089 -15.737153 -7.815165
LeftToeBase 12.698585 -0.000000 -0.000000
Spine -45.048590 -16.677013 3.113781
RightShoulder -20.231591 16.351930 -49.213432
RightArm -1.385489 -10.987956 43.142108
RightForeArm 7.371991 -0.000000 -7.646960
RightHand 5.911368 0.000000 10.619624
RightHandThumb1 -24.326973 -0.000000 -32.862282
LeftShoulder -9.442032 0.340769 35.464036
LeftArm 24.743678 -9.490259 -43.178085
LeftForeArm 12.250575 -0.000000 -3.056250
LeftHand -23.214496 -0.000000 -0.743686
LeftHandThumb1 -26.253704 0.000000 33.147579
Head 2.154618 -5.182251 0.261732
